<svg id="Layer_1" data-name="Layer 1" xmlns="http://www.w3.org/2000/svg" viewBox="0 0 216.49 30.48"><defs><style>.cls-1{fill:#ff6b00;}.cls-2{fill:#fff;}</style></defs><path class="cls-1" d="M19.14,0H5.87A5.87,5.87,0,0,0,0,5.87V24.61a5.87,5.87,0,0,0,5.87,5.87h13.5A15.26,15.26,0,0,0,34.61,15,15.39,15.39,0,0,0,19.14,0Zm0,27.27H6.69a3.47,3.47,0,0,1-3.47-3.48V6.69A3.47,3.47,0,0,1,6.69,3.22H19.37a12,12,0,0,1,12,12.25A12.15,12.15,0,0,1,19.17,27.27Z"/><path class="cls-1" d="M18.76,6.69H8A1.61,1.61,0,0,0,6.42,8.3h0A1.61,1.61,0,0,0,8,9.91H18.79A5.43,5.43,0,0,1,24.26,15a5.36,5.36,0,0,1-5.34,5.55H8a1.61,1.61,0,0,0-1.61,1.61h0A1.61,1.61,0,0,0,8,23.79h10.9A8.56,8.56,0,0,0,27.47,15,8.65,8.65,0,0,0,18.76,6.69Z"/><rect class="cls-1" x="6.6" y="13.63" width="10.28" height="3.22" rx="1.61"/><path class="cls-2" d="M42,8a.43.43,0,0,1,.43-.43h9.35a.43.43,0,0,1,.43.43v2.46a.43.43,0,0,1-.43.43H45.51v2.8h5.14a.44.44,0,0,1,.43.43v2.46a.42.42,0,0,1-.43.42H45.51V20h6.25a.43.43,0,0,1,.43.43v2.46a.43.43,0,0,1-.43.43H42.41a.43.43,0,0,1-.43-.43Z"/><path class="cls-2" d="M53.65,22.77,60.71,7.58a.47.47,0,0,1,.38-.24h.23a.44.44,0,0,1,.38.24l7.07,15.19a.4.4,0,0,1-.39.59h-2.5c-.41,0-.59-.14-.79-.56L64.28,21H58.14l-.81,1.81a.86.86,0,0,1-.82.54H54A.4.4,0,0,1,53.65,22.77Zm9.27-4.83-1.71-3.72h0l-1.69,3.72Z"/><path class="cls-2" d="M70.05,21.22l1.06-1.88a.58.58,0,0,1,.77-.13,6.77,6.77,0,0,0,3.2,1.24,1.42,1.42,0,0,0,1.56-1.36c0-.94-.79-1.67-2.33-2.28-1.94-.76-4.38-2.28-4.38-5,0-2.24,1.74-4.49,5.22-4.49A8.4,8.4,0,0,1,80,9a.57.57,0,0,1,.13.72L79,11.49c-.16.25-.56.45-.77.29A7.09,7.09,0,0,0,75,10.43a1.31,1.31,0,0,0-1.42,1.15c0,.83.67,1.47,2.46,2.19s4.55,2.07,4.55,5.14c0,2.33-2,4.67-5.32,4.67a7.16,7.16,0,0,1-5.08-1.73C69.93,21.62,69.87,21.53,70.05,21.22Z"/><path class="cls-2" d="M86.43,15.75l-5-7.53a.42.42,0,0,1,.36-.66h2.94a.45.45,0,0,1,.36.2l3.14,4.63,3.13-4.63a.42.42,0,0,1,.36-.2h2.94a.42.42,0,0,1,.36.66L90,15.73v7.2a.44.44,0,0,1-.42.43H86.86a.43.43,0,0,1-.43-.43Z"/><path class="cls-2" d="M102.28,8a.42.42,0,0,1,.41-.43h5.5a7.9,7.9,0,1,1,0,15.8h-5.5a.42.42,0,0,1-.41-.43ZM108,20a4.39,4.39,0,0,0,4.4-4.58,4.39,4.39,0,0,0-4.4-4.56H105.8V20Z"/><path class="cls-2" d="M120.91,15.75l-5-7.53a.42.42,0,0,1,.36-.66h2.93a.43.43,0,0,1,.36.2l3.14,4.63,3.14-4.63a.39.39,0,0,1,.36-.2h2.93a.42.42,0,0,1,.36.66l-5,7.51v7.2a.45.45,0,0,1-.43.43h-2.69a.43.43,0,0,1-.43-.43Z"/><path class="cls-2" d="M131.37,7.74a.43.43,0,0,1,.43-.4h.57l9,8.66h0V8a.43.43,0,0,1,.43-.43h2.71A.44.44,0,0,1,145,8V23.18a.42.42,0,0,1-.43.4h-.36a.57.57,0,0,1-.29-.11l-8.92-9h0v8.42a.43.43,0,0,1-.43.43h-2.69a.44.44,0,0,1-.42-.43Z"/><path class="cls-2" d="M146.85,22.77l7.07-15.19a.46.46,0,0,1,.38-.24h.23a.46.46,0,0,1,.38.24L162,22.77a.4.4,0,0,1-.38.59h-2.5c-.41,0-.59-.14-.79-.56L157.48,21h-6.13l-.82,1.81a.84.84,0,0,1-.81.54h-2.48A.4.4,0,0,1,146.85,22.77Zm9.28-4.83-1.72-3.72h0l-1.69,3.72Z"/><path class="cls-2" d="M165.92,7.7a.42.42,0,0,1,.4-.36h.36a.51.51,0,0,1,.39.22l5.23,9.75h0l5.23-9.75a.53.53,0,0,1,.39-.22h.36a.43.43,0,0,1,.41.36l2.55,15.16a.42.42,0,0,1-.43.5h-2.67a.45.45,0,0,1-.42-.36l-1-7h-.05l-3.79,7.32a.52.52,0,0,1-.38.24h-.41a.5.5,0,0,1-.38-.24L167.93,16h-.05l-1,7a.44.44,0,0,1-.43.36H163.8a.41.41,0,0,1-.43-.5Z"/><path class="cls-2" d="M184.1,8a.44.44,0,0,1,.43-.43h2.71a.45.45,0,0,1,.43.43V22.93a.45.45,0,0,1-.43.43h-2.71a.44.44,0,0,1-.43-.43Z"/><path class="cls-2" d="M198.53,7.34A7.6,7.6,0,0,1,204,9.43a.43.43,0,0,1,0,.64l-1.76,1.82a.39.39,0,0,1-.56,0,4.64,4.64,0,0,0-3.05-1.15,4.49,4.49,0,0,0-4.42,4.65A4.46,4.46,0,0,0,198.66,20a4.78,4.78,0,0,0,3-1.08.45.45,0,0,1,.58,0L204,20.79a.46.46,0,0,1,0,.61,7.71,7.71,0,0,1-5.48,2.18,8.12,8.12,0,1,1,0-16.24Z"/><path class="cls-2" d="M206,21.22,207,19.34a.57.57,0,0,1,.76-.13A6.83,6.83,0,0,0,211,20.45a1.42,1.42,0,0,0,1.56-1.36c0-.94-.79-1.67-2.33-2.28-1.94-.76-4.38-2.28-4.38-5,0-2.24,1.74-4.49,5.22-4.49A8.4,8.4,0,0,1,215.91,9a.57.57,0,0,1,.13.72l-1.15,1.74c-.16.25-.56.45-.77.29a7.09,7.09,0,0,0-3.22-1.35,1.31,1.31,0,0,0-1.43,1.15c0,.83.68,1.47,2.46,2.19s4.56,2.07,4.56,5.14c0,2.33-2,4.67-5.32,4.67a7.16,7.16,0,0,1-5.08-1.73C205.86,21.62,205.8,21.53,206,21.22Z"/></svg>