<?xml version="1.0" encoding="UTF-8"?><svg id="Layer_2" xmlns="http://www.w3.org/2000/svg" viewBox="0 0 15 15"><defs><style>.cls-1</style></defs><g id="Layer_1-2"><g><circle class="cls-1" cx="2.74" cy="2.5" r=".67"/><circle class="cls-1" cx="2.74" cy="6.5" r=".67"/><circle class="cls-1" cx="2.74" cy="10.5" r=".67"/><path class="cls-1" d="M7,12H1.5c-.28,0-.5-.22-.5-.5v-2c0-.28,.22-.5,.5-.5H7.79c.01-.35,.08-.68,.18-1H1.5c-.28,0-.5-.22-.5-.5v-2c0-.28,.22-.5,.5-.5H13.5c.28,0,.5,.22,.5,.5v.93s.09,.07,.13,.11c.37,.37,.64,.77,.82,1.22,.02-.09,.05-.16,.05-.26v-2c0-.39-.15-.73-.39-1,.24-.27,.39-.61,.39-1V1.5c0-.83-.67-1.5-1.5-1.5H1.5C.67,0,0,.67,0,1.5V3.5c0,.39,.15,.73,.39,1-.24,.27-.39,.61-.39,1v2c0,.39,.15,.73,.39,1-.24,.27-.39,.61-.39,1v2c0,.83,.67,1.5,1.5,1.5H7v-1ZM1,1.5c0-.28,.22-.5,.5-.5H13.5c.28,0,.5,.22,.5,.5V3.5c0,.28-.22,.5-.5,.5H1.5c-.28,0-.5-.22-.5-.5V1.5Z"/><path class="cls-1" d="M14.83,10.5c-.11-.11-.25-.17-.41-.17h-.19v-1.17c0-.74-.27-1.39-.8-1.92-.53-.53-1.17-.8-1.92-.8s-1.39,.27-1.92,.8c-.53,.53-.8,1.17-.8,1.92v1.17h-.19c-.16,0-.3,.06-.41,.17-.11,.11-.17,.25-.17,.41v3.5c0,.16,.06,.3,.17,.41,.11,.11,.25,.17,.41,.17h5.83c.16,0,.3-.06,.41-.17,.11-.11,.17-.25,.17-.41v-3.5c0-.16-.06-.3-.17-.41Zm-3.33,3.07c-.46,0-.83-.37-.83-.83s.37-.83,.83-.83,.83,.37,.83,.83-.37,.83-.83,.83Zm1.56-3.24h-3.11v-1.17c0-.43,.15-.8,.46-1.1,.3-.3,.67-.46,1.1-.46s.8,.15,1.1,.46c.3,.3,.46,.67,.46,1.1v1.17Z"/></g></g></svg>