<svg width="12" height="11" viewBox="0 0 12 11" fill="none" xmlns="http://www.w3.org/2000/svg">
<path d="M4.53001 9.98253C4.25001 9.90253 4.09001 9.63253 4.17001 9.38253L6.84001 0.332529C6.91001 0.082529 7.20001 -0.057471 7.47001 0.022529C7.74001 0.102529 7.91001 0.372529 7.83001 0.622529L5.16001 9.67253C5.09001 9.92253 4.80001 10.0625 4.53001 9.98253Z" fill="#2B2B2B"/>
<path d="M3.5 8.00259C3.39 8.00259 3.27 7.96259 3.18 7.88259L0.18 5.38259C0.07 5.29259 0 5.14259 0 5.00259C0 4.86259 0.07 4.71259 0.18 4.62259L3.18 2.12259C3.39 1.94259 3.71 1.97259 3.88 2.18259C4.06 2.39259 4.03 2.71259 3.82 2.88259L1.28 5.00259L3.82 7.12259C4.03 7.30259 4.06 7.61259 3.88 7.82259C3.78 7.94259 3.64 8.00259 3.5 8.00259Z" fill="#2B2B2B"/>
<path d="M8.50002 8.00259C8.36002 8.00259 8.21002 7.94259 8.12002 7.82259C7.94002 7.61259 7.97002 7.29259 8.18002 7.12259L10.72 5.00259L8.18002 2.88259C7.97002 2.70259 7.94002 2.39259 8.12002 2.18259C8.30002 1.97259 8.61002 1.94259 8.82002 2.12259L11.82 4.62259C11.93 4.71259 12 4.86259 12 5.00259C12 5.14259 11.93 5.29259 11.82 5.38259L8.82002 7.88259C8.73002 7.96259 8.61002 8.00259 8.50002 8.00259Z" fill="#2B2B2B"/>
</svg>
