<?xml version="1.0" encoding="UTF-8"?><svg id="Layer_2" xmlns="http://www.w3.org/2000/svg" viewBox="0 0 15 15"><defs><style>.cls-1</style></defs><g id="Layer_1-2"><g><path class="cls-1" d="M8.74,7.5h-1.24V1H2C.9,1,0,1.9,0,3V13c0,1.1,.9,2,2,2H12c1.1,0,2-.9,2-2V7.5h-5.26ZM2,2H6.5V7.5H1V3c0-.55,.45-1,1-1ZM1,13v-4.5H6.5v5.5H2c-.55,0-1-.45-1-1Zm12,0c0,.55-.45,1-1,1H7.5v-5.5h5.5v4.5Z"/><path class="cls-1" d="M12.6,1c.77,0,1.4,.63,1.4,1.4v2.6h-4V1h2.6m0-1h-3.6V6h6V2.4c0-1.33-1.07-2.4-2.4-2.4h0Z"/></g></g></svg>