<?xml version="1.0" encoding="UTF-8"?><svg id="Layer_2" xmlns="http://www.w3.org/2000/svg" viewBox="0 0 15 15"><defs><style>.cls-1</style></defs><g id="Layer_1-2"><g><path class="cls-1" d="M14.04,0h-4.82c-.53,0-.96,.49-.96,1.1v3.3c0,.61,.43,1.1,.96,1.1h4.82c.53,0,.96-.49,.96-1.1V1.1c0-.61-.43-1.1-.96-1.1Z"/><path class="cls-1" d="M14.04,7h-4.82c-.53,0-.96,.4-.96,.89v6.22c0,.49,.43,.89,.96,.89h4.82c.53,0,.96-.4,.96-.89V7.89c0-.49-.43-.89-.96-.89Z"/><path class="cls-1" d="M5.79,9.5H.96c-.53,0-.96,.49-.96,1.1v3.3c0,.61,.43,1.1,.96,1.1H5.79c.53,0,.96-.49,.96-1.1v-3.3c0-.61-.43-1.1-.96-1.1Z"/><path class="cls-1" d="M5.79,.02H.96C.43,.02,0,.42,0,.91V7.13c0,.49,.43,.89,.96,.89H5.79c.53,0,.96-.4,.96-.89V.91C6.75,.42,6.32,.02,5.79,.02Z"/></g></g></svg>