<svg width="10" height="12" viewBox="0 0 10 12" fill="none" xmlns="http://www.w3.org/2000/svg">
<path d="M8.86332 2.65637C8.96512 2.65337 9.06404 2.68996 9.13875 2.75823C9.21347 2.82651 9.258 2.92101 9.26274 3.02137V3.64637H0.709633V3.02237C0.711309 2.97188 0.723199 2.92224 0.744604 2.87635C0.766009 2.83046 0.796497 2.78926 0.834276 2.75516C0.872054 2.72106 0.916362 2.69476 0.964594 2.67779C1.01283 2.66083 1.06401 2.65354 1.11514 2.65637H8.86332ZM8.86332 1.99537H1.11514C0.828294 1.98675 0.549714 2.09081 0.340614 2.2847C0.131515 2.47858 0.00900286 2.74643 0 3.02937L0 4.15637C0.00236217 4.19916 0.0216139 4.23935 0.0536343 4.26832C0.0856547 4.29729 0.127899 4.31274 0.171326 4.31137H9.80206C9.84566 4.31301 9.88816 4.29767 9.9204 4.26868C9.95264 4.23968 9.97204 4.19934 9.9744 4.15637V3.02937C9.96513 2.7466 9.84251 2.47902 9.63344 2.28535C9.42437 2.09167 9.14594 1.98774 8.85926 1.99637L8.86332 1.99537Z" fill="#B31515"/>
<path d="M8.08976 11.9486H1.88757C1.57645 11.9729 1.26698 11.8849 1.01673 11.7009C0.766476 11.517 0.592477 11.2497 0.5271 10.9486V4.74463H1.25397V10.9156C1.27526 11.0916 1.5581 11.2736 1.88757 11.2736H8.08976C8.41721 11.2736 8.69802 11.0976 8.73147 10.8796V4.74463H9.45834V10.9156C9.39934 11.2239 9.22703 11.4998 8.97445 11.6905C8.72188 11.8811 8.40683 11.9731 8.08976 11.9486Z" fill="#B31515"/>
<path d="M7.12464 1.6594H6.41501V0.907403C6.41211 0.840645 6.38298 0.777623 6.33377 0.731699C6.28457 0.685776 6.21916 0.660562 6.15143 0.661403H3.82586C3.75761 0.65977 3.69143 0.68463 3.64157 0.730636C3.59171 0.776642 3.56214 0.840116 3.55924 0.907403V1.6594H2.84961V0.907403C2.85729 0.659477 2.96442 0.424697 3.14747 0.254634C3.33052 0.0845706 3.57451 -0.00686816 3.82586 0.000402681H6.14839C6.39944 -0.00580854 6.64283 0.0859856 6.82564 0.255829C7.00845 0.425672 7.1159 0.659832 7.12464 0.907403V1.6594Z" fill="#B31515"/>
<path d="M4.98637 10.2056C4.94539 10.2068 4.90458 10.2 4.86628 10.1855C4.82798 10.171 4.79296 10.1492 4.76322 10.1214C4.73349 10.0935 4.70964 10.0601 4.69304 10.023C4.67644 9.98599 4.66742 9.94607 4.6665 9.90558V6.26258C4.67111 6.18172 4.70687 6.10566 4.76644 6.05002C4.82602 5.99438 4.90489 5.96338 4.98688 5.96338C5.06886 5.96338 5.14773 5.99438 5.20731 6.05002C5.26688 6.10566 5.30264 6.18172 5.30725 6.26258V9.91058C5.30408 9.99166 5.26855 10.0682 5.20842 10.1235C5.1483 10.1788 5.06846 10.2083 4.98637 10.2056Z" fill="#B31515"/>
<path d="M3.20512 10.2056C3.16414 10.2068 3.12333 10.2 3.08503 10.1855C3.04673 10.171 3.01171 10.1492 2.98197 10.1214C2.95224 10.0935 2.92839 10.0601 2.91179 10.023C2.89519 9.98599 2.88617 9.94607 2.88525 9.90558V6.26258C2.88986 6.18172 2.92562 6.10566 2.98519 6.05002C3.04477 5.99438 3.12364 5.96338 3.20563 5.96338C3.28761 5.96338 3.36648 5.99438 3.42606 6.05002C3.48563 6.10566 3.52139 6.18172 3.526 6.26258V9.91058C3.52283 9.99166 3.4873 10.0682 3.42717 10.1235C3.36705 10.1788 3.28721 10.2083 3.20512 10.2056Z" fill="#B31515"/>
<path d="M6.76738 10.2056C6.7264 10.2068 6.68558 10.2 6.64728 10.1855C6.60899 10.171 6.57396 10.1492 6.54423 10.1214C6.5145 10.0935 6.49064 10.0601 6.47404 10.023C6.45744 9.98599 6.44843 9.94607 6.44751 9.90558V6.26258C6.45211 6.18172 6.48787 6.10566 6.54745 6.05002C6.60702 5.99438 6.6859 5.96338 6.76788 5.96338C6.84986 5.96338 6.92874 5.99438 6.98831 6.05002C7.04789 6.10566 7.08365 6.18172 7.08825 6.26258V9.91058C7.08509 9.99166 7.04956 10.0682 6.98943 10.1235C6.9293 10.1788 6.84947 10.2083 6.76738 10.2056Z" fill="#B31515"/>
</svg>
