<?xml version="1.0" encoding="UTF-8"?><svg id="Layer_2" xmlns="http://www.w3.org/2000/svg" viewBox="0 0 15 15"><defs><style>.cls-1</style></defs><g id="Layer_1-2"><path class="cls-1" d="M14.03,4l-5.03-.83V1c0-.55-.45-1-1-1L1,1c-.55,0-1,.45-1,1V14c0,.55,.45,1,1,1H14.03c.54,0,.97-.45,.97-1V5c0-.55-.44-1-.97-1Zm-9.11-.75h1.48v1.64h-1.48v-1.64Zm-1,4.68h-1.48v-1.68h1.48v1.68Zm0-3.04h-1.48v-1.64h1.48v1.64Zm2.51,6.04h-1.51v-1.68h1.51v1.68Zm0-3h-1.51v-1.68h1.51v1.68Zm5.83,3h-1.51v-1.68h1.51v1.68Zm0-3.04h-1.51v-1.64h1.51v1.64Z"/></g></svg>