<?xml version="1.0" encoding="UTF-8"?><svg id="Layer_2" xmlns="http://www.w3.org/2000/svg" viewBox="0 0 15 15"><defs><style>.cls-1</style></defs><g id="Layer_1-2"><g><path class="cls-1" d="M14.03,4l-5.03-.83V1c0-.55-.45-1-1-1L1,1c-.55,0-1,.45-1,1V14c0,.55,.45,1,1,1H14.03c.54,0,.97-.45,.97-1V5c0-.55-.44-1-.97-1Zm-6.03,10H1V2h.14s6.86-.99,6.86-.99V14Zm1,0V4.18l4.86,.81h.05s.08,.01,.08,.01l.03,9h-5.03Z"/><rect class="cls-1" x="10.75" y="6.25" width="1.51" height="1.64"/><rect class="cls-1" x="10.75" y="9.25" width="1.51" height="1.68"/><rect class="cls-1" x="4.92" y="3.25" width="1.48" height="1.64"/><rect class="cls-1" x="2.44" y="3.25" width="1.48" height="1.64"/><rect class="cls-1" x="2.44" y="6.25" width="1.48" height="1.68"/><rect class="cls-1" x="4.92" y="6.25" width="1.51" height="1.68"/><rect class="cls-1" x="4.92" y="9.25" width="1.51" height="1.68"/></g></g></svg>