<?xml version="1.0" encoding="UTF-8"?><svg id="Layer_2" xmlns="http://www.w3.org/2000/svg" viewBox="0 0 9 9"><defs><style>.cls-1</style></defs><g id="Layer_1-2"><g><path class="cls-1" d="M7.47,9H1.53c-.84,0-1.53-.69-1.53-1.53V1.53C0,.69,.69,0,1.53,0h2.52V.9H1.53c-.35,0-.63,.28-.63,.63V7.47c0,.35,.28,.63,.63,.63H7.47c.35,0,.63-.28,.63-.63v-2.07h.9v2.07c0,.84-.69,1.53-1.53,1.53Z"/><path class="cls-1" d="M8.97,1.25c-.05-.11-.13-.2-.24-.24L6.37,.03c-.23-.1-.49,.01-.59,.24-.09,.23,.01,.49,.24,.59l1.3,.54c-.52,.15-1.66,.62-2.78,1.98-1.4,1.7-1.11,3.39-1.09,3.46,.04,.22,.23,.37,.44,.37,.03,0,.05,0,.08,0,.24-.04,.41-.28,.36-.52,0-.06-.22-1.36,.9-2.73,1.2-1.46,2.39-1.71,2.49-1.73l-.57,1.37c-.09,.23,.01,.49,.24,.59,.06,.02,.11,.03,.17,.03,.18,0,.34-.1,.42-.28l.98-2.35c.05-.11,.05-.23,0-.34Z"/></g></g></svg>