<svg width="72" height="72" viewBox="0 0 72 72" fill="none" xmlns="http://www.w3.org/2000/svg">
<path d="M36 72C55.8823 72 72 55.8823 72 36C72 16.1177 55.8823 0 36 0C16.1177 0 0 16.1177 0 36C0 55.8823 16.1177 72 36 72Z" fill="#F36C21"/>
<path d="M48.936 54H23.064C21.6804 53.954 20.3713 53.3624 19.4224 52.3544C18.4736 51.3463 17.9622 50.0038 18 48.62V39.065C17.9948 38.9123 18.0199 38.76 18.074 38.6171C18.128 38.4741 18.2098 38.3433 18.3147 38.2322C18.4196 38.121 18.5455 38.0318 18.6851 37.9696C18.8247 37.9075 18.9752 37.8736 19.128 37.87C19.2808 37.8736 19.4313 37.9075 19.5709 37.9696C19.7105 38.0318 19.8364 38.121 19.9413 38.2322C20.0462 38.3433 20.128 38.4741 20.182 38.6171C20.2361 38.76 20.2612 38.9123 20.256 39.065V48.62C20.2349 49.388 20.5183 50.1332 21.0442 50.6933C21.5702 51.2534 22.2962 51.5828 23.064 51.61H48.936C49.3167 51.5981 49.6914 51.5113 50.0385 51.3546C50.3857 51.1979 50.6986 50.9743 50.9594 50.6967C51.2201 50.419 51.4236 50.0927 51.5583 49.7364C51.6929 49.3801 51.756 49.0007 51.744 48.62V39.065C51.7348 38.9112 51.7572 38.7572 51.8098 38.6124C51.8623 38.4676 51.9439 38.335 52.0495 38.2229C52.1552 38.1108 52.2826 38.0214 52.4241 37.9604C52.5655 37.8993 52.7179 37.8678 52.872 37.8678C53.0261 37.8678 53.1785 37.8993 53.3199 37.9604C53.4613 38.0214 53.5888 38.1108 53.6944 38.2229C53.8001 38.335 53.8817 38.4676 53.9342 38.6124C53.9868 38.7572 54.0092 38.9112 54 39.065V48.62C54.0369 50.0033 53.5252 51.3451 52.5765 52.3524C51.6277 53.3598 50.319 53.951 48.936 53.997V54Z" fill="white"/>
<path d="M45.2761 26.722L36.8441 18.358C36.7325 18.2446 36.5994 18.1546 36.4526 18.0931C36.3058 18.0317 36.1483 18 35.9891 18C35.83 18 35.6724 18.0317 35.5257 18.0931C35.3789 18.1546 35.2458 18.2446 35.1341 18.358L26.7251 26.722C26.6103 26.8318 26.5189 26.9637 26.4564 27.1098C26.394 27.2559 26.3618 27.4131 26.3618 27.572C26.3618 27.7309 26.394 27.8881 26.4564 28.0342C26.5189 28.1803 26.6103 28.3122 26.7251 28.422C26.8368 28.5354 26.9699 28.6254 27.1167 28.6869C27.2634 28.7483 27.421 28.78 27.5801 28.78C27.7393 28.78 27.8968 28.7483 28.0436 28.6869C28.1904 28.6254 28.3235 28.5354 28.4351 28.422L34.7951 22.09V43.09C34.7951 43.4094 34.922 43.7158 35.1479 43.9417C35.3738 44.1676 35.6802 44.2945 35.9996 44.2945C36.3191 44.2945 36.6254 44.1676 36.8513 43.9417C37.0772 43.7158 37.2041 43.4094 37.2041 43.09V22.09L43.5881 28.422C43.8117 28.6467 44.1142 28.7752 44.4311 28.78C44.6678 28.7769 44.8984 28.7042 45.0941 28.5711C45.2899 28.438 45.4422 28.2502 45.532 28.0312C45.6218 27.8122 45.6453 27.5716 45.5994 27.3393C45.5536 27.1071 45.4405 26.8934 45.2741 26.725L45.2761 26.722Z" fill="white"/>
</svg>
