<svg width="145" height="156" viewBox="0 0 145 156" fill="none" xmlns="http://www.w3.org/2000/svg">
<path d="M30.5611 35.722C31.3211 34.368 32.1391 33.044 33.0151 31.77L24.8651 25.697C23.6514 27.4392 22.5302 29.244 21.5061 31.104L30.5611 35.715V35.722Z" fill="#FF6500"/>
<path d="M42.165 9.18496L47.847 17.611C49.1644 16.793 50.5157 16.0403 51.901 15.353L47.724 6.07996C45.818 7.01699 43.9624 8.05341 42.165 9.18496Z" fill="#FF6500"/>
<path d="M74.0072 0C72.9722 0 71.9302 0.029 70.8872 0.08L71.7412 10.207C72.4942 10.171 73.2472 10.156 73.9922 10.156H74.4992C75.1292 10.163 75.7662 10.185 76.3992 10.214L77.2502 0.087C76.3672 0.044 75.4842 0.015 74.5932 0.007H74.0072V0Z" fill="#FF6500"/>
<path d="M100.298 17.626L105.98 9.19997C104.183 8.06811 102.327 7.03168 100.421 6.09497L96.2371 15.36C97.6201 16.048 98.9801 16.808 100.298 17.626Z" fill="#FF6500"/>
<path d="M126.631 31.1181C125.61 29.2561 124.489 27.4511 123.272 25.7111L115.114 31.7841C115.99 33.0581 116.808 34.3841 117.561 35.7291L126.624 31.1181H126.631Z" fill="#FF6500"/>
<path d="M26.5439 77.7109L72.2629 56.3309L118.235 77.7309L71.785 100.373L26.5439 77.7109Z" fill="#CCDEFF"/>
<path d="M74.0281 104.8V149.549L116.381 127.703V104.373L95.9101 115.636L74.0281 104.8Z" fill="#EDF4FF"/>
<path d="M49.1501 116.635L28.7371 105.51V127.725L69.6371 149.491V104.583L49.1501 116.635Z" fill="#EDF4FF"/>
<path d="M31.9221 78.2049L44.1331 84.4049L32.0741 78.1329L31.9221 78.2049Z" fill="#073C92"/>
<path d="M95.46 47.5139L78.22 55.9689L117.894 74.8179L134.239 64.8799L95.46 47.5139Z" fill="#EDF4FF"/>
<path d="M95.802 110.677L135.332 88.9319L117.991 80.2319L76.041 100.898L95.802 110.677Z" fill="#EDF4FF"/>
<path d="M9.33789 89.932L49.0699 111.582L67.0789 100.982L27.0869 80.674L9.33789 89.932Z" fill="#EDF4FF"/>
<path d="M27.0721 75.643L68.7951 55.882L53.5211 46.928L10.6621 66.327L27.0721 75.643Z" fill="#EDF4FF"/>
<path d="M122.114 77.387L143.67 64.281L95.37 42.66L73.35 53.46L53.782 41.991L0.984 65.881L22.512 78.111L0 89.845L24.35 103.113V130.359L71.813 155.621L120.774 130.373V101.948L144.774 88.748L122.114 77.373V77.387ZM95.462 47.514L134.238 64.881L117.886 74.819L78.212 55.969L95.454 47.514H95.462ZM73.42 58.553L113.449 77.569L71.437 98.269L44.137 84.4L31.926 78.2L32.071 78.128L73.417 58.548L73.42 58.553ZM10.662 66.327L53.529 46.935L68.8 55.889L27.079 75.65L10.67 66.334L10.662 66.327ZM9.337 89.927L27.086 80.669L67.079 100.981L49.07 111.581L9.337 89.927ZM28.743 105.504L49.156 116.63L69.635 104.581V149.489L28.745 127.723V105.509L28.743 105.504ZM116.387 127.697L74.036 149.541V104.8L95.918 115.629L116.389 104.366V127.696L116.387 127.697ZM95.809 110.681L76.048 100.902L118 80.225L135.343 88.925L95.813 110.67L95.809 110.681Z" fill="#073C92"/>
</svg>
