<?xml version="1.0" encoding="UTF-8"?><svg id="Layer_2" xmlns="http://www.w3.org/2000/svg" viewBox="0 0 15 15"><defs><style>.cls-1</style></defs><g id="Layer_1-2"><path class="cls-1" d="M14.91,5.92c-.06-.08-.11-.09-.15-.1l-.51-.07-.58-.05-.34-.03-.12-.32s-.04-.11-.08-.19c-.04-.1-.07-.18-.09-.23l-.11-.29,.2-.24,.4-.47,.27-.37s.05-.09,.05-.15v-.02s0-.05,0-.05c0-.08-.03-.12-.07-.16l-1.96-1.96c-.05-.05-.09-.09-.19-.09h-.04c-.07,0-.13,.02-.18,.05l-.39,.29-.44,.38-.24,.2-.29-.11-.43-.16-.32-.12-.03-.34-.05-.62-.07-.46c0-.06-.02-.1-.1-.17-.09-.07-.15-.08-.21-.08h-2.74c-.05,0-.12,0-.21,.09-.08,.06-.09,.11-.1,.15l-.07,.5-.05,.59-.03,.34-.32,.12-.2,.08-.21,.08-.29,.11-.24-.2-.47-.4-.37-.27s-.09-.05-.15-.05h-.08s-.1,.03-.16,.09l-1.94,1.94s-.07,.08-.08,.19v.06c0,.06,0,.12,.04,.17l.28,.38,.39,.43,.25,.28-.17,.33c-.05,.09-.1,.21-.15,.35l-.12,.32-.34,.03-.62,.05-.46,.07s-.09,.01-.16,.1c-.08,.09-.09,.16-.09,.21v2.74s0,.11,.08,.19c.07,.09,.13,.1,.18,.11l.48,.07,.59,.05,.34,.03,.12,.32c.06,.17,.11,.29,.15,.37l.16,.32-.24,.27-.42,.47-.26,.36s-.04,.06-.04,.14v.02s0,.03,0,.03c0,.09,.04,.16,.09,.22l1.93,1.93c.05,.05,.12,.08,.21,.08h.04c.06,0,.11-.02,.15-.05l.4-.29,.43-.39,.28-.24,.33,.17c.13,.07,.25,.12,.35,.16l.33,.11,.03,.34,.05,.61,.07,.47s.01,.08,.1,.15c.09,.08,.16,.09,.21,.09h2.74c.05,0,.12,0,.21-.08,.09-.07,.09-.12,.1-.15l.07-.51,.05-.58,.03-.34,.32-.12c.12-.05,.25-.1,.37-.16l.32-.16,.27,.24,.47,.42,.36,.26s.09,.04,.16,.04h.09c.06,0,.11-.04,.14-.07l1.94-1.94c.05-.05,.08-.11,.08-.19v-.05s0-.02,0-.02c0-.06-.02-.1-.04-.12l-.3-.41-.38-.44-.2-.24,.11-.29c.02-.05,.05-.13,.09-.23,.04-.09,.06-.16,.08-.2l.12-.32,.34-.03,.61-.05,.47-.07c.05,0,.1-.02,.17-.1,.07-.09,.08-.15,.08-.21v-2.74c0-.05,0-.12-.09-.21Zm-5.82,3.17c-.45,.44-.97,.66-1.59,.66s-1.15-.21-1.59-.65c-.44-.44-.65-.96-.65-1.6s.21-1.15,.65-1.59c.44-.44,.96-.66,1.59-.66s1.15,.22,1.59,.66c.45,.45,.66,.97,.66,1.59s-.22,1.15-.66,1.59Z"/></g></svg>