<?xml version="1.0" encoding="UTF-8"?><svg id="Layer_2" xmlns="http://www.w3.org/2000/svg" viewBox="0 0 15 15"><defs><style>.cls-1</style></defs><g id="Layer_1-2"><g><path class="cls-1" d="M8.59,1l.03,.23,.05,.55,.05,.63,.59,.22,.4,.15,.55,.21,.45-.38,.41-.35,.19-.14,1.56,1.56-.14,.19-.35,.41-.38,.45,.21,.55c.02,.05,.05,.13,.09,.23,.03,.07,.05,.12,.06,.16l.22,.59,.63,.05,.54,.05,.24,.03v2.2l-.24,.03-.54,.05-.63,.05-.22,.59s-.04,.1-.07,.17c-.04,.1-.07,.17-.09,.22l-.21,.55,.38,.45,.35,.41,.14,.19-1.56,1.56-.18-.13-.4-.36-.51-.45-.61,.3c-.1,.05-.2,.09-.3,.13l-.59,.22-.05,.63-.05,.54-.03,.23h-2.2l-.03-.23-.05-.54-.06-.64-.61-.21c-.07-.03-.16-.07-.26-.12l-.61-.32-.51,.46-.4,.36-.18,.13-1.56-1.56,.13-.18,.36-.4,.45-.51-.3-.6c-.03-.07-.07-.17-.12-.3l-.22-.59-.63-.05-.55-.05-.23-.03v-2.2l.23-.03,.55-.05,.64-.05,.22-.61c.04-.1,.07-.19,.11-.26l.32-.61-.46-.52-.36-.4-.13-.18,1.57-1.57,.19,.14,.41,.35,.45,.38,.55-.21,.2-.08,.18-.07,.59-.22,.05-.63,.05-.55,.03-.23h2.2m.18-1h-2.56c-.19,0-.36,.06-.52,.19-.16,.13-.25,.29-.27,.47l-.07,.46-.05,.58s-.11,.04-.19,.07c-.09,.03-.15,.06-.19,.07l-.44-.37-.37-.27c-.13-.09-.27-.14-.44-.14h-.07c-.2,.02-.37,.09-.5,.23l-1.81,1.81c-.13,.13-.2,.29-.22,.49,0,.03,0,.06,0,.09,0,.16,.04,.31,.13,.44l.27,.37,.39,.44c-.06,.1-.11,.23-.17,.39l-.58,.05-.46,.07c-.18,.02-.33,.11-.46,.27-.13,.16-.2,.33-.2,.52v2.56c0,.19,.07,.36,.2,.51,.13,.15,.29,.24,.46,.27l.46,.07,.58,.05c.07,.18,.12,.31,.17,.4l-.39,.44-.27,.37c-.09,.12-.13,.26-.13,.42,0,.03,0,.06,0,.09,.02,.2,.09,.37,.22,.5l1.81,1.81c.14,.13,.31,.21,.5,.22h.07c.17,0,.31-.05,.44-.14l.37-.27,.44-.39c.15,.08,.28,.14,.39,.17l.05,.57,.07,.46c.02,.18,.11,.33,.27,.46,.16,.13,.33,.19,.52,.19h2.56c.19,0,.36-.06,.51-.19,.15-.13,.24-.28,.26-.46l.07-.46,.05-.57c.13-.05,.26-.11,.4-.17l.44,.39,.37,.27c.13,.09,.28,.13,.45,.13h.08c.2-.02,.36-.09,.49-.22l1.81-1.81c.14-.14,.21-.31,.22-.5,0-.02,0-.04,0-.07,0-.17-.05-.32-.15-.45l-.27-.37-.37-.44s.04-.11,.08-.2c.04-.09,.06-.15,.08-.2l.57-.05,.46-.07c.18-.02,.34-.11,.47-.26,.13-.15,.19-.33,.19-.51v-2.56c0-.19-.06-.36-.19-.52-.13-.16-.29-.25-.47-.27l-.46-.07-.57-.05s-.04-.11-.08-.19c-.04-.09-.06-.15-.08-.19l.37-.44,.27-.37c.1-.14,.15-.29,.15-.46,0-.02,0-.04,0-.07-.01-.2-.09-.36-.22-.49l-1.81-1.81c-.13-.14-.29-.22-.49-.23h-.07c-.17,0-.32,.05-.46,.14l-.37,.27-.44,.37-.4-.15-.05-.58-.07-.46c-.02-.18-.11-.34-.26-.47-.15-.13-.33-.19-.51-.19h0Z"/><path class="cls-1" d="M7.5,5.99c.42,0,.76,.14,1.06,.44,.3,.3,.44,.64,.44,1.06s-.14,.76-.44,1.06c-.3,.3-.64,.44-1.07,.44s-.77-.14-1.06-.43c-.3-.3-.43-.64-.43-1.07s.14-.76,.44-1.06c.3-.3,.63-.44,1.06-.44m0-1c-.69,0-1.28,.24-1.77,.73-.48,.49-.73,1.08-.73,1.77s.24,1.29,.73,1.77c.48,.49,1.07,.73,1.77,.73s1.28-.24,1.77-.73c.49-.49,.74-1.08,.74-1.77s-.25-1.27-.74-1.76c-.49-.49-1.08-.74-1.77-.74h0Z"/></g></g></svg>