<svg width="43" height="30" viewBox="0 0 43 30" fill="none" xmlns="http://www.w3.org/2000/svg">
<path d="M1.63811 15.399L16.3331 28.515C16.6329 28.7821 17.0263 28.9195 17.4272 28.8972C17.8281 28.8749 18.2038 28.6947 18.4721 28.396L41.1721 3.12804C41.3049 2.97991 41.4073 2.80706 41.4733 2.61937C41.5394 2.43169 41.5678 2.23283 41.557 2.03416C41.5461 1.83549 41.4963 1.64089 41.4103 1.46149C41.3243 1.28208 41.2037 1.12137 41.0556 0.988537C40.9075 0.855705 40.7346 0.75335 40.5469 0.687317C40.3593 0.621283 40.1604 0.592864 39.9617 0.603682C39.7631 0.6145 39.5685 0.664343 39.3891 0.750366C39.2096 0.836388 39.0489 0.956906 38.9161 1.10504L17.2241 25.248L3.66011 13.133C3.35962 12.8649 2.96492 12.7271 2.56284 12.75C2.16076 12.7729 1.78424 12.9545 1.51611 13.255C1.24797 13.5555 1.11019 13.9502 1.13307 14.3523C1.15595 14.7544 1.33762 15.1309 1.63811 15.399Z" fill="#7AC9A0" stroke="#7AC9A0"/>
</svg>
