<svg width="25" height="24" viewBox="0 0 25 24" fill="none" xmlns="http://www.w3.org/2000/svg">
<path d="M12.9951 24C15.3685 24 17.6886 23.2962 19.662 21.9776C21.6354 20.6591 23.1734 18.7849 24.0817 16.5922C24.9899 14.3995 25.2276 11.9867 24.7645 9.65892C24.3015 7.33115 23.1586 5.19295 21.4804 3.51472C19.8022 1.83649 17.664 0.693605 15.3362 0.230582C13.0084 -0.232441 10.5956 0.00519931 8.40292 0.913451C6.2102 1.8217 4.33606 3.35977 3.01748 5.33316C1.6989 7.30655 0.995117 9.62663 0.995117 12C0.996707 15.1821 2.2615 18.2334 4.51159 20.4835C6.76168 22.7336 9.81301 23.9984 12.9951 24ZM12.9951 22.2C10.9777 22.2 9.00568 21.6018 7.3283 20.481C5.65092 19.3602 4.34356 17.7672 3.57155 15.9034C2.79953 14.0396 2.59754 11.9887 2.99111 10.0101C3.38468 8.03148 4.35613 6.21401 5.78263 4.78752C7.20912 3.36102 9.02659 2.38956 11.0052 1.996C12.9838 1.60243 15.0347 1.80442 16.8985 2.57643C18.7623 3.34845 20.3553 4.65581 21.4761 6.33319C22.5969 8.01057 23.1951 9.98264 23.1951 12C23.1951 13.3395 22.9313 14.6659 22.4187 15.9034C21.9061 17.1409 21.1548 18.2653 20.2076 19.2125C19.2605 20.1597 18.136 20.911 16.8985 21.4236C15.661 21.9362 14.3346 22.2 12.9951 22.2ZM12.9951 14.4C12.7564 14.4 12.5275 14.3052 12.3587 14.1364C12.1899 13.9676 12.0951 13.7387 12.0951 13.5V6.90001C12.0951 6.66131 12.1899 6.43239 12.3587 6.26361C12.5275 6.09483 12.7564 6.00001 12.9951 6.00001C13.2338 6.00001 13.4627 6.09483 13.6315 6.26361C13.8003 6.43239 13.8951 6.66131 13.8951 6.90001V13.5C13.8946 13.7384 13.7995 13.9668 13.6308 14.1351C13.4621 14.3035 13.2335 14.398 12.9951 14.398V14.4ZM12.9951 18C13.2325 18 13.4645 17.9296 13.6618 17.7978C13.8591 17.6659 14.0129 17.4785 14.1038 17.2592C14.1946 17.04 14.2184 16.7987 14.1721 16.5659C14.1258 16.3331 14.0115 16.1193 13.8436 15.9515C13.6758 15.7837 13.462 15.6694 13.2292 15.6231C12.9964 15.5768 12.7552 15.6005 12.5359 15.6913C12.3166 15.7822 12.1292 15.936 11.9974 16.1333C11.8655 16.3307 11.7951 16.5627 11.7951 16.8C11.7954 17.1181 11.9219 17.4231 12.1469 17.6479C12.372 17.8727 12.677 18 12.9951 18Z" fill="#B31515"/>
</svg>
