<svg width="14" height="10" viewBox="0 0 14 10" fill="none" xmlns="http://www.w3.org/2000/svg">
<path d="M12.8201 4.47997L10.8501 2.79997C10.6301 2.61997 10.3101 2.63997 10.1201 2.85997C9.94007 3.07997 9.96007 3.39997 10.1801 3.58997L11.2501 4.49997H7.38007C7.07007 4.49997 6.82007 4.71997 6.82007 4.99997C6.82007 5.27997 7.07007 5.49997 7.38007 5.49997H11.1001L10.1501 6.43997C9.95007 6.63997 9.94007 6.96997 10.1501 7.16997C10.2501 7.26997 10.3801 7.31997 10.5201 7.31997C10.6601 7.31997 10.7801 7.26997 10.8801 7.16997L12.8501 5.22997C12.9501 5.12997 13.0101 4.98997 13.0001 4.83997C13.0001 4.68997 12.9301 4.55997 12.8201 4.46997V4.47997Z" fill="#BCC6D5"/>
<path d="M12.5 1H0.5C0.22 1 0 0.78 0 0.5C0 0.22 0.22 0 0.5 0H12.5C12.78 0 13 0.22 13 0.5C13 0.78 12.78 1 12.5 1Z" fill="#BCC6D5"/>
<path d="M6.04 4H0.46C0.2 4 0 3.78 0 3.5C0 3.22 0.21 3 0.46 3H6.04C6.3 3 6.5 3.22 6.5 3.5C6.5 3.78 6.29 4 6.04 4Z" fill="#BCC6D5"/>
<path d="M12.5 10H0.5C0.22 10 0 9.78 0 9.5C0 9.22 0.22 9 0.5 9H12.5C12.78 9 13 9.22 13 9.5C13 9.78 12.78 10 12.5 10Z" fill="#BCC6D5"/>
<path d="M6.04 7H0.46C0.2 7 0 6.78 0 6.5C0 6.22 0.21 6 0.46 6H6.04C6.3 6 6.5 6.22 6.5 6.5C6.5 6.78 6.29 7 6.04 7Z" fill="#BCC6D5"/>
</svg>
