<?xml version="1.0" encoding="UTF-8"?><svg id="Layer_2" xmlns="http://www.w3.org/2000/svg" viewBox="0 0 15 15"><defs><style>.cls-1</style></defs><g id="Layer_1-2"><path class="cls-1" d="M7.5,0C3.36,0,0,3.36,0,7.5s3.36,7.5,7.5,7.5,7.5-3.36,7.5-7.5S11.64,0,7.5,0Zm.84,11.66v.45c-.09,.08-.2,.16-.33,.23-.13,.07-.26,.13-.4,.19-.14,.05-.28,.1-.43,.13-.14,.03-.28,.05-.41,.05-.27,0-.46-.06-.57-.19-.1-.13-.16-.26-.16-.41,0-.17,.01-.34,.03-.51,.02-.16,.05-.35,.09-.55l.73-4.03-.67-.18v-.44c.11-.05,.25-.11,.43-.16,.18-.06,.37-.11,.57-.15,.2-.04,.4-.08,.6-.11,.2-.03,.37-.05,.52-.05l.19,.16-.97,5.58h.75Zm.34-7.13c-.18,.18-.43,.27-.74,.27-.29,0-.52-.09-.71-.27-.19-.18-.28-.42-.28-.72,0-.32,.09-.57,.28-.75,.19-.18,.42-.27,.71-.27,.31,0,.55,.09,.74,.27,.18,.18,.27,.43,.27,.75,0,.3-.09,.54-.27,.72Z"/></g></svg>