<svg width="10" height="10" viewBox="0 0 10 10" fill="none" xmlns="http://www.w3.org/2000/svg">
<path d="M9 1V3H1V1H9ZM9 0H1C0.45 0 0 0.45 0 1V3C0 3.55 0.45 4 1 4H9C9.55 4 10 3.55 10 3V1C10 0.45 9.55 0 9 0Z" fill="#BCC6D5"/>
<path d="M5.12992 10C4.87992 10 4.66992 9.8 4.66992 9.54V4.96C4.66992 4.71 4.86992 4.5 5.12992 4.5C5.38992 4.5 5.58992 4.7 5.58992 4.96V9.54C5.58992 9.79 5.38992 10 5.12992 10Z" fill="#BCC6D5"/>
<path d="M7.41988 7.71004H2.83988C2.58988 7.71004 2.37988 7.51004 2.37988 7.25004C2.37988 6.99004 2.57988 6.79004 2.83988 6.79004H7.41988C7.66988 6.79004 7.87988 6.99004 7.87988 7.25004C7.87988 7.51004 7.67988 7.71004 7.41988 7.71004Z" fill="#BCC6D5"/>
</svg>
