<?xml version="1.0" encoding="UTF-8"?><svg id="Layer_2" xmlns="http://www.w3.org/2000/svg" viewBox="0 0 15 15"><defs><style>.cls-1</style></defs><g id="Layer_1-2"><g><path class="cls-1" d="M10.5,12v1.25c0,.41-.34,.75-.75,.75H1.75c-.41,0-.75-.34-.75-.75V1.75c0-.41,.34-.75,.75-.75h8c.41,0,.75,.34,.75,.75v1.25h1V1.75c0-.97-.78-1.75-1.75-1.75H1.75C.78,0,0,.78,0,1.75V13.25c0,.97,.78,1.75,1.75,1.75h8c.97,0,1.75-.78,1.75-1.75v-1.25h-1Z"/><g><path class="cls-1" d="M13.95,8H5.5c-.28,0-.5-.22-.5-.5s.22-.5,.5-.5H13.95c.28,0,.5,.22,.5,.5s-.22,.5-.5,.5Z"/><path class="cls-1" d="M12.12,10.38c-.13,0-.26-.05-.35-.15-.2-.2-.2-.51,0-.71l2.02-2.02-2.02-2.02c-.2-.2-.2-.51,0-.71s.51-.2,.71,0l2.38,2.38c.2,.2,.2,.51,0,.71l-2.38,2.38c-.1,.1-.23,.15-.35,.15Z"/></g></g></g></svg>