<?xml version="1.0" encoding="UTF-8"?><svg id="Layer_2" xmlns="http://www.w3.org/2000/svg" viewBox="0 0 13.12 15"><defs><style>.cls-1</style></defs><g id="Layer_1-2"><g><path class="cls-1" d="M6.61,15c-1.29,0-2.34-.95-2.34-2.11h.94c0,.65,.63,1.17,1.41,1.17s1.41-.53,1.41-1.17h.94c0,1.16-1.05,2.11-2.34,2.11Z"/><path class="cls-1" d="M13.1,10.4l-2.23-3.25V3.92c0-2.16-1.95-3.92-4.35-3.92S2.16,1.76,2.16,3.92v3.23L.1,10.24l-.07,.17c-.09,.42,.02,.85,.29,1.18,.29,.35,.72,.55,1.18,.55H11.62c.47,0,.9-.2,1.18-.55,.27-.33,.38-.76,.29-1.18Zm-1.02,.59c-.11,.13-.27,.21-.46,.21H1.5c-.18,0-.35-.08-.46-.21-.05-.06-.12-.17-.11-.32l2.16-3.23V3.92c0-1.65,1.53-2.98,3.41-2.98s3.41,1.34,3.41,2.98v2.64h-2.68c-.26,0-.47,.21-.47,.47s.21,.47,.47,.47h2.72l2.23,3.18c0,.15-.06,.26-.11,.32Z"/></g></g></svg>