<?xml version="1.0" encoding="UTF-8"?><svg id="Layer_2" xmlns="http://www.w3.org/2000/svg" viewBox="0 0 13.12 15"><defs><style>.cls-1</style></defs><g id="Layer_1-2"><g><path class="cls-1" d="M6.61,14.06c-.78,0-1.41-.53-1.41-1.17h-.94c0,1.16,1.05,2.11,2.34,2.11s2.34-.95,2.34-2.11h-.94c0,.65-.63,1.17-1.41,1.17Z"/><path class="cls-1" d="M13.1,10.4l-1.99-2.9h-3.46c-.26,0-.47-.21-.47-.47s.21-.47,.47-.47h3.22V3.92c0-2.16-1.95-3.92-4.35-3.92S2.16,1.76,2.16,3.92v3.23L.1,10.24l-.07,.17c-.09,.42,.02,.85,.29,1.18,.29,.35,.72,.55,1.18,.55H11.62c.47,0,.9-.2,1.18-.55,.27-.33,.38-.76,.29-1.18Z"/></g></g></svg>