<svg width="13" height="10" viewBox="0 0 13 10" fill="none" xmlns="http://www.w3.org/2000/svg">
<path d="M5.61 4.50005H1.89L2.84 3.56005C3.04 3.36005 3.05 3.03005 2.84 2.83005C2.74 2.73005 2.61 2.68005 2.47 2.68005C2.33 2.68005 2.21 2.73005 2.11 2.83005L0.15 4.76005C0.05 4.86005 0 5.00005 0 5.15005C0 5.30005 0.07 5.43005 0.18 5.53005L2.15 7.21005C2.37 7.39005 2.69 7.37005 2.88 7.15005C3.06 6.93005 3.04 6.61005 2.82 6.42005L1.75 5.51005H5.62C5.93 5.51005 6.18 5.29005 6.18 5.01005C6.18 4.73005 5.93 4.51005 5.62 4.51005L5.61 4.50005Z" fill="#BCC6D5"/>
<path d="M12.5 1H0.5C0.22 1 0 0.78 0 0.5C0 0.22 0.22 0 0.5 0H12.5C12.78 0 13 0.22 13 0.5C13 0.78 12.78 1 12.5 1Z" fill="#BCC6D5"/>
<path d="M12.54 4H6.96C6.7 4 6.5 3.78 6.5 3.5C6.5 3.22 6.71 3 6.96 3H12.53C12.79 3 12.99 3.22 12.99 3.5C12.99 3.78 12.78 4 12.53 4H12.54Z" fill="#BCC6D5"/>
<path d="M12.5 10H0.5C0.22 10 0 9.78 0 9.5C0 9.22 0.22 9 0.5 9H12.5C12.78 9 13 9.22 13 9.5C13 9.78 12.78 10 12.5 10Z" fill="#BCC6D5"/>
<path d="M12.54 7H6.96C6.7 7 6.5 6.78 6.5 6.5C6.5 6.22 6.71 6 6.96 6H12.53C12.79 6 12.99 6.22 12.99 6.5C12.99 6.78 12.78 7 12.53 7H12.54Z" fill="#BCC6D5"/>
</svg>
