<?xml version="1.0" encoding="UTF-8"?><svg id="Layer_2" xmlns="http://www.w3.org/2000/svg" viewBox="0 0 15 15"><defs><style>.cls-1</style></defs><g id="Layer_1-2"><g><path class="cls-1" d="M7.5,1c3.58,0,6.5,2.92,6.5,6.5s-2.92,6.5-6.5,6.5S1,11.08,1,7.5,3.92,1,7.5,1m0-1C3.36,0,0,3.36,0,7.5s3.36,7.5,7.5,7.5,7.5-3.36,7.5-7.5S11.64,0,7.5,0h0Z"/><path class="cls-1" d="M11.5,7h-3.5V3.5c0-.28-.22-.5-.5-.5s-.5,.22-.5,.5v3.5H3.5c-.28,0-.5,.22-.5,.5s.22,.5,.5,.5h3.5v3.5c0,.28,.22,.5,.5,.5s.5-.22,.5-.5v-3.5h3.5c.28,0,.5-.22,.5-.5s-.22-.5-.5-.5Z"/></g></g></svg>