<?xml version="1.0" encoding="UTF-8"?><svg id="Layer_2" xmlns="http://www.w3.org/2000/svg" viewBox="0 0 15 15"><defs><style>.cls-1</style></defs><g id="Layer_1-2"><g><g><rect class="cls-1" x="7.03" y="8.84" width=".94" height="5.69"/><path class="cls-1" d="M14.53,15H.47c-.26,0-.47-.21-.47-.47s.21-.47,.47-.47H14.53c.26,0,.47,.21,.47,.47s-.21,.47-.47,.47Z"/></g><path class="cls-1" d="M13.91,6.16c-.22,.28-.49,.55-.79,.81v1.34c0,.07,0,.14-.12,.25-.09,.09-.16,.11-.24,.11H2.23c-.08,0-.15-.02-.24-.11-.1-.1-.12-.17-.12-.25V1.3c0-.07,0-.14,.12-.25,.09-.09,.16-.11,.24-.11h1.76c.18,0,.35,.07,.46,.18l.87,.85,.27,.27h2.1c-.03-.3-.04-.62-.04-.94h-1.68l-.87-.85c-.29-.29-.7-.45-1.12-.45h-1.76c-.35,0-.65,.13-.91,.39-.26,.26-.39,.56-.39,.91v7.01c0,.34,.13,.65,.39,.91,.26,.26,.56,.39,.91,.39H12.77c.35,0,.65-.13,.91-.39,.26-.26,.39-.56,.39-.91v-2.39c-.05,.08-.09,.17-.15,.24Z"/><path class="cls-1" d="M11.52,1.22c.65,.44,1.42,.71,2.07,.84-.06,1.2-.39,2.17-1,2.95-.25,.33-.62,.64-1.07,.93-.45-.29-.82-.6-1.07-.93-.61-.78-.93-1.75-.99-2.95,.64-.13,1.41-.41,2.07-.85M11.52,0c-.71,.79-2.14,1.22-2.81,1.22,0,0-.02,0-.03,0-.05,0-.09,.03-.12,.06-.03,.03-.05,.07-.06,.12-.04,1.71,.36,3.11,1.2,4.19,.46,.59,1.12,1.07,1.81,1.44,.69-.37,1.35-.85,1.81-1.44,.84-1.09,1.24-2.48,1.2-4.19,0-.04-.02-.08-.06-.12-.03-.03-.07-.05-.12-.06,0,0-.02,0-.03,0C13.66,1.22,12.23,.79,11.52,0h0Z"/></g></g></svg>