<svg width="13" height="10" viewBox="0 0 13 10" fill="none" xmlns="http://www.w3.org/2000/svg">
<path d="M9.56998 10C7.36998 10 6.35999 8.2 6.35999 6.52C6.35999 2.93 10.34 0 11.63 0C12.11 0 12.5 0.38 12.5 0.85C12.5 1.18 12.3 1.49 11.97 1.67C11.23 2.06 10.34 3.38 10.1 4.34C10.66 4.42 11.16 4.67 11.57 5.06C12.25 5.72 12.49 6.59 12.49 7.19C12.49 8.55 11.32 10 9.57999 10H9.56998ZM10.99 1.19C9.72998 1.88 7.30999 3.98 7.30999 6.52C7.30999 7.68 7.89998 9.05 9.56998 9.05C10.74 9.05 11.53 8.09 11.53 7.19C11.53 6.77 11.34 6.17 10.9 5.75C10.55 5.41 10.1 5.24 9.56998 5.26H9.07999V4.78C9.07999 3.68 9.98998 2.04 10.99 1.19Z" fill="#2B2B2B"/>
<path d="M3.21 10C1.01 10 0 8.2 0 6.52C0 2.93 3.98 0 5.27 0C5.75 0 6.14 0.38 6.14 0.85C6.14 1.18 5.94 1.49 5.61 1.67C4.87 2.06 3.98 3.38 3.74 4.34C4.3 4.42 4.8 4.67 5.21 5.06C5.89 5.72 6.13 6.59 6.13 7.19C6.13 8.55 4.96 10 3.22 10H3.21ZM4.63 1.19C3.37 1.89 0.95 3.98 0.95 6.52C0.95 7.68 1.54 9.05 3.21 9.05C4.38 9.05 5.17 8.09 5.17 7.19C5.17 6.77 4.98 6.17 4.54 5.75C4.19 5.41 3.74 5.24 3.21 5.26H2.72V4.78C2.72 3.68 3.63 2.04 4.62 1.19H4.63Z" fill="#2B2B2B"/>
</svg>
