<svg width="34" height="34" viewBox="0 0 34 34" fill="none" xmlns="http://www.w3.org/2000/svg">
<path fill-rule="evenodd" clip-rule="evenodd" d="M17.0001 14.575L30.0721 1.50105C30.3939 1.17908 30.8305 0.998141 31.2857 0.998047C31.7409 0.997953 32.1776 1.17871 32.4996 1.50055C32.8215 1.82239 33.0025 2.25895 33.0026 2.71419C33.0027 3.16944 32.8219 3.60608 32.5001 3.92805L19.4251 17L32.5001 30.072C32.8085 30.3963 32.978 30.8283 32.9725 31.2758C32.9669 31.7233 32.7868 32.1509 32.4705 32.4675C32.1542 32.7841 31.7267 32.9646 31.2792 32.9704C30.8317 32.9763 30.3996 32.8072 30.0751 32.4991L17.0001 19.427L3.92806 32.4991C3.60622 32.821 3.16966 33.002 2.71441 33.002C2.25917 33.0021 1.82253 32.8214 1.50056 32.4995C1.17859 32.1777 0.997652 31.7411 0.997559 31.2859C0.997465 30.8307 1.17822 30.394 1.50006 30.072L14.5751 17L1.50006 3.92805C1.17822 3.60608 0.997465 3.16944 0.997559 2.71419C0.997652 2.25895 1.17859 1.82239 1.50056 1.50055C1.82253 1.17871 2.25917 0.997953 2.71441 0.998047C3.16966 0.998141 3.60622 1.17908 3.92806 1.50105L17.0001 14.575Z" fill="#DD6E6E"/>
</svg>
