<svg width="12" height="12" viewBox="0 0 12 12" fill="none" xmlns="http://www.w3.org/2000/svg">
<path d="M7.908 1.2L10.8 4.092V10.56C10.8 10.692 10.692 10.8 10.56 10.8H1.44C1.308 10.8 1.2 10.692 1.2 10.56V1.44C1.2 1.308 1.308 1.2 1.44 1.2H7.908ZM8.4 0H1.44C0.648 0 0 0.648 0 1.44V10.56C0 11.352 0.648 12 1.44 12H10.56C11.352 12 12 11.352 12 10.56V3.6L8.4 0Z" fill="white"/>
<path d="M9.5999 10.8H8.3999V7.2H3.5999V10.8H2.3999V7.2C2.3999 6.54 2.9399 6 3.5999 6H8.3999C9.0599 6 9.5999 6.54 9.5999 7.2V10.8Z" fill="white"/>
<path d="M4.8001 4.19995C4.1401 4.19995 3.6001 3.65995 3.6001 2.99995V1.19995H4.8001V2.99995H7.2001V1.19995H8.4001V2.99995C8.4001 3.65995 7.8601 4.19995 7.2001 4.19995H4.8001Z" fill="white"/>
</svg>
