<svg width="37" height="76" viewBox="0 0 37 76" fill="none" xmlns="http://www.w3.org/2000/svg">
<path d="M6.10352e-05 76.0001V70.4401C4.16972 70.4394 8.2963 69.5966 12.1322 67.9621C15.9682 66.3275 19.4344 63.935 22.3231 60.9281C28.2958 54.7945 31.6217 46.5612 31.5851 38C31.5851 20.1131 17.4161 5.56105 6.10352e-05 5.56105V5.07146e-05C4.95461 -0.00827402 9.85733 1.00836 14.4001 2.98605C18.8155 4.90556 22.8116 7.67245 26.1621 11.1301C29.5543 14.611 32.2461 18.7114 34.0911 23.2081C37.9679 32.688 37.9679 43.3111 34.0911 52.791C32.2462 57.2881 29.5544 61.3888 26.1621 64.8701C22.8113 68.3274 18.8153 71.0942 14.4001 73.0141C9.85721 74.9914 4.95457 76.008 6.10352e-05 76.0001Z" fill="#FF6000"/>
</svg>
