<?xml version="1.0" encoding="UTF-8"?><svg id="Layer_2" xmlns="http://www.w3.org/2000/svg" viewBox="0 0 15 15"><defs><style>.cls-1</style></defs><g id="Layer_1-2"><path class="cls-1" d="M13.22,5.13c-.23-1.01-.62-1.94-1.2-2.74C10.89,.87,9.23,0,7.45,0S4.21,.77,3.12,2.18c-.64,.82-1.08,1.83-1.33,2.95C.64,5.64-.12,7.05,.02,8.65c.16,1.84,1.45,3.25,2.92,3.25,.07,0,.13,0,.2,0,1.44-.13,1.02-6.14-.29-6.9,.23-.83,.57-1.58,1.05-2.2,.9-1.16,2.16-1.79,3.55-1.79,1.46,0,2.83,.73,3.76,1.99,.43,.59,.74,1.26,.95,2-1.13,.62-1.6,5.11-.82,6.49-.09,.7-.25,1.2-.55,1.5-.37,.37-1.04,.54-2.16,.57-.23-.44-.84-.78-1.54-.8-.9-.03-1.61,.45-1.6,1.07,.01,.62,.75,1.15,1.65,1.17,.55,.02,1.03-.16,1.32-.44,1.55-.02,2.44-.27,3.04-.86,.44-.44,.67-1.03,.8-1.82,1.37-.14,2.53-1.48,2.68-3.22,.14-1.6-.62-3-1.76-3.52Z"/></g></svg>