<?xml version="1.0" encoding="UTF-8"?><svg id="Layer_2" xmlns="http://www.w3.org/2000/svg" viewBox="0 0 15 15"><defs><style>.cls-1</style></defs><g id="Layer_1-2"><path class="cls-1" d="M13.22,5.13c-.23-1.01-.62-1.94-1.2-2.74C10.89,.87,9.23,0,7.45,0S4.21,.77,3.12,2.18c-.64,.82-1.08,1.83-1.33,2.95C.64,5.64-.12,7.05,.02,8.65c.16,1.84,1.45,3.25,2.92,3.25,.07,0,.13,0,.2,0,1.44-.13,1.02-6.14-.29-6.9,.23-.83,.57-1.58,1.05-2.2,.9-1.16,2.16-1.79,3.55-1.79,1.46,0,2.83,.73,3.76,1.99,.43,.59,.74,1.26,.95,2-1.13,.62-1.6,5.11-.82,6.49-.09,.7-.25,1.2-.55,1.5-.37,.37-1.04,.54-2.16,.57-.23-.44-.84-.78-1.54-.8-.9-.03-1.61,.45-1.6,1.07,.01,.62,.75,1.15,1.65,1.17,.55,.02,1.03-.16,1.32-.44,1.55-.02,2.44-.27,3.04-.86,.44-.44,.67-1.03,.8-1.82,1.37-.14,2.53-1.48,2.68-3.22,.14-1.6-.62-3-1.76-3.52ZM2.85,10.9c-.91-.06-1.72-1.09-1.83-2.33-.06-.7,.1-1.38,.44-1.89,.04-.06,.08-.1,.12-.15,.12-.14,.24-.26,.38-.36,0,0,.02-.01,.03-.02,.14-.09,.28-.16,.43-.2,.06,.09,.12,.22,.18,.36h0c.45,1.15,.63,3.78,.25,4.58Zm11.14-2.33c-.08,.87-.5,1.62-1.05,2.02h0s-.04,.03-.06,.04h0c-.23,.15-.47,.25-.72,.27-.07-.15-.11-.37-.15-.62,0-.02,0-.04,0-.07h0c-.13-1.14,.06-3.02,.42-3.93h0s0,0,0,0c.05-.13,.1-.25,.16-.33,.15,.04,.28,.11,.41,.19,.03,.02,.06,.04,.09,.06,.12,.09,.24,.2,.35,.33,.4,.5,.62,1.24,.55,2.04Z"/></g></svg>