<?xml version="1.0" encoding="UTF-8"?><svg id="Layer_2" xmlns="http://www.w3.org/2000/svg" viewBox="0 0 15 15"><defs><style>.cls-1</style></defs><g id="Layer_1-2"><path class="cls-1" d="M7.44,15c-1.46,0-2.93-.43-4.2-1.3l-.44-.3,.36-.4c.48-.53,2.98-3.29,2.98-3.29l.21-.23,.29,.1c.53,.18,1.43,.4,1.77,.33,.54-.11,.99-.35,1.38-.74s.63-.85,.74-1.4c.06-.3,.07-.6,.03-.89l-1.83,1.83-2.43-2.43,1.83-1.83c-.29-.04-.59-.03-.89,.03-.55,.11-1.01,.35-1.4,.74-.39,.39-.63,.85-.74,1.39-.07,.35,.16,1.24,.34,1.76l.1,.3-3.93,3.55-.3-.44C-.73,8.79-.35,4.78,2.22,2.22c2.94-2.94,7.7-2.96,10.61-.04s2.89,7.67-.04,10.61c-1.46,1.46-3.4,2.22-5.35,2.22Zm-3.21-1.78c2.54,1.44,5.78,1.02,7.89-1.1,2.57-2.57,2.59-6.74,.04-9.28s-6.71-2.53-9.28,.04C.77,4.99,.34,8.24,1.79,10.77l2.66-2.41c-.15-.49-.39-1.4-.28-1.96,.14-.72,.48-1.34,1-1.86,.52-.52,1.16-.86,1.89-.99,.62-.12,1.24-.08,1.84,.12,.21,.07,.37,.24,.42,.46,.05,.22-.01,.46-.18,.62l-1.53,1.53,1.11,1.11,1.53-1.53c.16-.16,.39-.23,.62-.18,.22,.05,.39,.21,.46,.42,.2,.6,.24,1.22,.12,1.84-.14,.73-.47,1.37-.99,1.89s-1.14,.86-1.86,1c-.56,.11-1.47-.12-1.96-.27-.49,.54-1.73,1.91-2.4,2.65Z"/></g></svg>