<?xml version="1.0" encoding="UTF-8"?><svg id="Layer_2" xmlns="http://www.w3.org/2000/svg" viewBox="0 0 15 15"><defs><style>.cls-1</style></defs><g id="Layer_1-2"><path class="cls-1" d="M12.78,12.78c2.94-2.94,2.96-7.69,.05-10.61-2.92-2.92-7.67-2.9-10.61,.05C-.39,4.83-.7,8.85,1.29,11.77c.56-.5,3.5-3.16,3.52-3.18,0,0-.52-1.47-.38-2.14s.44-1.25,.93-1.73c.49-.49,1.07-.79,1.75-.92,.59-.11,1.16-.07,1.72,.11,.13,.04,.16,.22,.06,.32l-1.99,1.99,1.89,1.89,1.99-1.99c.1-.1,.28-.07,.32,.06,.18,.56,.22,1.13,.11,1.72-.13,.68-.44,1.27-.92,1.75s-1.06,.8-1.73,.93c-.67,.13-2.15-.37-2.15-.37,0,0-2.67,2.95-3.18,3.51,2.91,1.99,6.94,1.68,9.54-.92Z"/></g></svg>