<?xml version="1.0" encoding="UTF-8"?><svg id="Layer_2" xmlns="http://www.w3.org/2000/svg" viewBox="0 0 14 17"><defs><style>.cls-1</style></defs><g id="Layer_1-2"><g><path class="cls-1" d="M12.44,3.78c.31,0,.56,.24,.56,.52v.89H1v-.89c0-.29,.25-.52,.56-.52H12.44m0-.94H1.56c-.86,0-1.56,.66-1.56,1.47v1.61c0,.12,.11,.22,.24,.22H13.76c.13,0,.24-.1,.24-.22v-1.61c0-.81-.7-1.47-1.56-1.47h0Z"/><path class="cls-1" d="M11.35,17H2.65c-.99,0-1.82-.61-1.91-1.42V6.75s1.02,0,1.02,0V15.53c.03,.25,.43,.51,.89,.51H11.35c.46,0,.86-.25,.9-.56V6.75s1.02,0,1.02,0V15.53c-.1,.86-.92,1.47-1.92,1.47Z"/><path class="cls-1" d="M10,2.36h-1V1.29c0-.19-.17-.35-.37-.35h-3.26c-.2,0-.37,.16-.37,.35v1.07h-1V1.29c0-.71,.61-1.29,1.37-1.29h3.26c.75,0,1.37,.58,1.37,1.29v1.07Z"/><g><path class="cls-1" d="M7,14.52c-.25,0-.45-.19-.45-.42v-5.19c0-.23,.2-.42,.45-.42s.45,.19,.45,.42v5.19c0,.23-.2,.42-.45,.42Z"/><path class="cls-1" d="M4.5,14.52c-.25,0-.45-.19-.45-.42v-5.19c0-.23,.2-.42,.45-.42s.45,.19,.45,.42v5.19c0,.23-.2,.42-.45,.42Z"/><path class="cls-1" d="M9.5,14.52c-.25,0-.45-.19-.45-.42v-5.19c0-.23,.2-.42,.45-.42s.45,.19,.45,.42v5.19c0,.23-.2,.42-.45,.42Z"/></g></g></g></svg>