<?xml version="1.0" encoding="UTF-8"?><svg id="Layer_2" xmlns="http://www.w3.org/2000/svg" viewBox="0 0 14 17"><defs><style>.cls-1</style></defs><g id="Layer_1-2"><g><path class="cls-1" d="M12.44,2.83H1.56c-.86,0-1.56,.66-1.56,1.47v1.61c0,.12,.11,.22,.24,.22H13.76c.13,0,.24-.1,.24-.22v-1.61c0-.81-.7-1.47-1.56-1.47Z"/><path class="cls-1" d="M12.75,6.75H1.25s-.51,0-.51,0V15.58c.1,.81,.92,1.42,1.92,1.42H11.35c.99,0,1.82-.61,1.92-1.47V6.75h-.51Zm-7.8,7.35c0,.23-.2,.42-.45,.42s-.45-.19-.45-.42v-5.19c0-.23,.2-.42,.45-.42s.45,.19,.45,.42v5.19Zm2.5,0c0,.23-.2,.42-.45,.42s-.45-.19-.45-.42v-5.19c0-.23,.2-.42,.45-.42s.45,.19,.45,.42v5.19Zm2.5,0c0,.23-.2,.42-.45,.42s-.45-.19-.45-.42v-5.19c0-.23,.2-.42,.45-.42s.45,.19,.45,.42v5.19Z"/><path class="cls-1" d="M5,1.29c0-.19,.17-.35,.37-.35h3.26c.2,0,.37,.16,.37,.35v1.07h1V1.29c0-.71-.61-1.29-1.37-1.29h-3.26c-.75,0-1.37,.58-1.37,1.29v1.07h1V1.29Z"/></g></g></svg>