<svg width="110" height="115" viewBox="0 0 110 115" fill="none" xmlns="http://www.w3.org/2000/svg">
<path d="M6.68 110.24C4.98667 110.24 3.69333 109.74 2.8 108.74C1.90667 107.74 1.46 106.147 1.46 103.96V96.96H4.42V104.26C4.42 105.54 4.61333 106.433 5 106.94C5.38667 107.447 5.94667 107.7 6.68 107.7C7.41333 107.7 7.98 107.447 8.38 106.94C8.78 106.433 8.98 105.54 8.98 104.26V96.96H11.82V103.96C11.82 106.147 11.38 107.74 10.5 108.74C9.63333 109.74 8.36 110.24 6.68 110.24ZM14.6008 113.68V100.08H17.0008L17.2008 101.06H17.2808C17.6674 100.713 18.1008 100.427 18.5808 100.2C19.0741 99.96 19.5808 99.84 20.1008 99.84C21.3008 99.84 22.2474 100.3 22.9408 101.22C23.6341 102.127 23.9808 103.347 23.9808 104.88C23.9808 106.013 23.7808 106.98 23.3808 107.78C22.9808 108.58 22.4608 109.193 21.8208 109.62C21.1941 110.033 20.5208 110.24 19.8008 110.24C19.3741 110.24 18.9608 110.153 18.5608 109.98C18.1608 109.793 17.7874 109.533 17.4408 109.2L17.5408 110.78V113.68H14.6008ZM19.1208 107.84C19.6274 107.84 20.0608 107.607 20.4208 107.14C20.7808 106.673 20.9608 105.933 20.9608 104.92C20.9608 103.133 20.3874 102.24 19.2408 102.24C18.6674 102.24 18.1008 102.54 17.5408 103.14V107.2C17.8074 107.44 18.0741 107.607 18.3408 107.7C18.6074 107.793 18.8674 107.84 19.1208 107.84ZM28.7656 110.24C27.7523 110.24 27.0456 109.94 26.6456 109.34C26.259 108.727 26.0656 107.92 26.0656 106.92V95.98H29.0056V107.04C29.0056 107.347 29.059 107.56 29.1656 107.68C29.2856 107.8 29.4056 107.86 29.5256 107.86C29.5923 107.86 29.6456 107.86 29.6856 107.86C29.739 107.847 29.8056 107.833 29.8856 107.82L30.2456 110C30.0856 110.067 29.879 110.12 29.6256 110.16C29.3856 110.213 29.099 110.24 28.7656 110.24ZM36.0483 110.24C35.2083 110.24 34.4149 110.04 33.6683 109.64C32.9349 109.227 32.3416 108.633 31.8883 107.86C31.4349 107.073 31.2083 106.133 31.2083 105.04C31.2083 103.933 31.4349 102.993 31.8883 102.22C32.3416 101.447 32.9349 100.86 33.6683 100.46C34.4149 100.047 35.2083 99.84 36.0483 99.84C36.8883 99.84 37.6749 100.047 38.4083 100.46C39.1416 100.86 39.7349 101.447 40.1883 102.22C40.6416 102.993 40.8683 103.933 40.8683 105.04C40.8683 106.133 40.6416 107.073 40.1883 107.86C39.7349 108.633 39.1416 109.227 38.4083 109.64C37.6749 110.04 36.8883 110.24 36.0483 110.24ZM36.0483 107.86C36.6483 107.86 37.1016 107.607 37.4083 107.1C37.7149 106.58 37.8683 105.893 37.8683 105.04C37.8683 104.173 37.7149 103.487 37.4083 102.98C37.1016 102.473 36.6483 102.22 36.0483 102.22C35.4349 102.22 34.9749 102.473 34.6683 102.98C34.3749 103.487 34.2283 104.173 34.2283 105.04C34.2283 105.893 34.3749 106.58 34.6683 107.1C34.9749 107.607 35.4349 107.86 36.0483 107.86ZM45.1672 110.24C44.2605 110.24 43.5405 109.953 43.0072 109.38C42.4739 108.793 42.2072 108.08 42.2072 107.24C42.2072 106.2 42.6472 105.387 43.5272 104.8C44.4072 104.213 45.8272 103.82 47.7872 103.62C47.7605 103.18 47.6272 102.833 47.3872 102.58C47.1605 102.313 46.7739 102.18 46.2272 102.18C45.8139 102.18 45.3939 102.26 44.9672 102.42C44.5405 102.58 44.0872 102.8 43.6072 103.08L42.5472 101.14C43.1739 100.753 43.8405 100.44 44.5472 100.2C45.2672 99.96 46.0139 99.84 46.7872 99.84C48.0539 99.84 49.0272 100.207 49.7072 100.94C50.3872 101.673 50.7272 102.8 50.7272 104.32V110H48.3272L48.1272 108.98H48.0472C47.6339 109.353 47.1872 109.66 46.7072 109.9C46.2405 110.127 45.7272 110.24 45.1672 110.24ZM46.1672 107.96C46.5005 107.96 46.7872 107.887 47.0272 107.74C47.2805 107.58 47.5339 107.373 47.7872 107.12V105.38C46.7472 105.513 46.0272 105.727 45.6272 106.02C45.2272 106.3 45.0272 106.633 45.0272 107.02C45.0272 107.34 45.1272 107.58 45.3272 107.74C45.5405 107.887 45.8205 107.96 46.1672 107.96ZM56.7541 110.24C55.5274 110.24 54.5407 109.78 53.7941 108.86C53.0607 107.927 52.6941 106.653 52.6941 105.04C52.6941 103.96 52.8874 103.033 53.2741 102.26C53.6741 101.473 54.1874 100.873 54.8141 100.46C55.4541 100.047 56.1207 99.84 56.8141 99.84C57.3607 99.84 57.8207 99.9333 58.1941 100.12C58.5674 100.307 58.9207 100.56 59.2541 100.88L59.1341 99.36V95.98H62.0741V110H59.6741L59.4741 109.02H59.3941C59.0474 109.367 58.6407 109.66 58.1741 109.9C57.7074 110.127 57.2341 110.24 56.7541 110.24ZM57.5141 107.84C57.8341 107.84 58.1207 107.773 58.3741 107.64C58.6407 107.507 58.8941 107.273 59.1341 106.94V102.88C58.8807 102.64 58.6074 102.473 58.3141 102.38C58.0341 102.287 57.7607 102.24 57.4941 102.24C57.0274 102.24 56.6141 102.467 56.2541 102.92C55.8941 103.36 55.7141 104.053 55.7141 105C55.7141 105.973 55.8674 106.693 56.1741 107.16C56.4941 107.613 56.9407 107.84 57.5141 107.84ZM64.6789 110V100.08H67.6189V110H64.6789ZM66.1389 98.62C65.6456 98.62 65.2456 98.48 64.9389 98.2C64.6322 97.92 64.4789 97.5467 64.4789 97.08C64.4789 96.6133 64.6322 96.24 64.9389 95.96C65.2456 95.68 65.6456 95.54 66.1389 95.54C66.6322 95.54 67.0322 95.68 67.3389 95.96C67.6456 96.24 67.7989 96.6133 67.7989 97.08C67.7989 97.5467 67.6456 97.92 67.3389 98.2C67.0322 98.48 66.6322 98.62 66.1389 98.62ZM70.2063 110V100.08H72.6063L72.8063 101.34H72.8863C73.3129 100.94 73.7796 100.593 74.2863 100.3C74.8063 99.9933 75.3996 99.84 76.0663 99.84C77.1463 99.84 77.9263 100.2 78.4063 100.92C78.8996 101.627 79.1463 102.6 79.1463 103.84V110H76.2063V104.22C76.2063 103.5 76.1063 103.007 75.9063 102.74C75.7196 102.473 75.4129 102.34 74.9863 102.34C74.6129 102.34 74.2929 102.427 74.0263 102.6C73.7596 102.76 73.4663 102.993 73.1463 103.3V110H70.2063ZM85.1916 114.22C84.4182 114.22 83.7182 114.133 83.0916 113.96C82.4649 113.787 81.9649 113.513 81.5916 113.14C81.2182 112.767 81.0316 112.287 81.0316 111.7C81.0316 110.9 81.5049 110.233 82.4516 109.7V109.62C82.1982 109.447 81.9782 109.227 81.7916 108.96C81.6182 108.693 81.5316 108.353 81.5316 107.94C81.5316 107.58 81.6382 107.233 81.8516 106.9C82.0649 106.567 82.3316 106.293 82.6516 106.08V106C82.3049 105.76 81.9916 105.413 81.7116 104.96C81.4449 104.507 81.3116 103.993 81.3116 103.42C81.3116 102.62 81.5049 101.96 81.8916 101.44C82.2782 100.907 82.7849 100.507 83.4116 100.24C84.0382 99.9733 84.7049 99.84 85.4116 99.84C85.9982 99.84 86.5116 99.92 86.9516 100.08H90.5716V102.22H88.9916C89.0849 102.367 89.1582 102.553 89.2116 102.78C89.2782 103.007 89.3116 103.253 89.3116 103.52C89.3116 104.28 89.1382 104.907 88.7916 105.4C88.4449 105.893 87.9782 106.26 87.3916 106.5C86.8049 106.74 86.1449 106.86 85.4116 106.86C85.0249 106.86 84.6249 106.793 84.2116 106.66C83.9716 106.86 83.8516 107.107 83.8516 107.4C83.8516 107.653 83.9649 107.84 84.1916 107.96C84.4182 108.08 84.8049 108.14 85.3516 108.14H86.9516C88.1782 108.14 89.1116 108.34 89.7516 108.74C90.4049 109.127 90.7316 109.767 90.7316 110.66C90.7316 111.34 90.5049 111.947 90.0516 112.48C89.5982 113.027 88.9582 113.453 88.1316 113.76C87.3049 114.067 86.3249 114.22 85.1916 114.22ZM85.4116 105.08C85.7982 105.08 86.1182 104.94 86.3716 104.66C86.6382 104.38 86.7716 103.967 86.7716 103.42C86.7716 102.9 86.6382 102.507 86.3716 102.24C86.1182 101.96 85.7982 101.82 85.4116 101.82C85.0249 101.82 84.6982 101.953 84.4316 102.22C84.1782 102.487 84.0516 102.887 84.0516 103.42C84.0516 103.967 84.1782 104.38 84.4316 104.66C84.6982 104.94 85.0249 105.08 85.4116 105.08ZM85.6516 112.38C86.3182 112.38 86.8649 112.26 87.2916 112.02C87.7182 111.78 87.9316 111.493 87.9316 111.16C87.9316 110.853 87.7982 110.647 87.5316 110.54C87.2782 110.433 86.9049 110.38 86.4116 110.38H85.3916C85.0582 110.38 84.7782 110.367 84.5516 110.34C84.3382 110.327 84.1516 110.3 83.9916 110.26C83.6316 110.58 83.4516 110.907 83.4516 111.24C83.4516 111.613 83.6516 111.893 84.0516 112.08C84.4649 112.28 84.9982 112.38 85.6516 112.38ZM94.0352 110.24C93.5285 110.24 93.1018 110.067 92.7552 109.72C92.4218 109.36 92.2552 108.92 92.2552 108.4C92.2552 107.867 92.4218 107.427 92.7552 107.08C93.1018 106.72 93.5285 106.54 94.0352 106.54C94.5418 106.54 94.9618 106.72 95.2952 107.08C95.6418 107.427 95.8152 107.867 95.8152 108.4C95.8152 108.92 95.6418 109.36 95.2952 109.72C94.9618 110.067 94.5418 110.24 94.0352 110.24ZM100.031 110.24C99.5246 110.24 99.0979 110.067 98.7513 109.72C98.4179 109.36 98.2513 108.92 98.2513 108.4C98.2513 107.867 98.4179 107.427 98.7513 107.08C99.0979 106.72 99.5246 106.54 100.031 106.54C100.538 106.54 100.958 106.72 101.291 107.08C101.638 107.427 101.811 107.867 101.811 108.4C101.811 108.92 101.638 109.36 101.291 109.72C100.958 110.067 100.538 110.24 100.031 110.24ZM106.027 110.24C105.521 110.24 105.094 110.067 104.747 109.72C104.414 109.36 104.247 108.92 104.247 108.4C104.247 107.867 104.414 107.427 104.747 107.08C105.094 106.72 105.521 106.54 106.027 106.54C106.534 106.54 106.954 106.72 107.287 107.08C107.634 107.427 107.807 107.867 107.807 108.4C107.807 108.92 107.634 109.36 107.287 109.72C106.954 110.067 106.534 110.24 106.027 110.24Z" fill="#002867"/>
<path d="M53.0001 73.5C72.6062 73.5 88.5001 57.6061 88.5001 38C88.5001 18.3939 72.6062 2.5 53.0001 2.5C33.394 2.5 17.5001 18.3939 17.5001 38C17.5001 57.6061 33.394 73.5 53.0001 73.5Z" stroke="#002867"/>
<path d="M55.0001 76.0001V70.4401C59.1697 70.4394 63.2963 69.5966 67.1322 67.9621C70.9682 66.3275 74.4344 63.935 77.3231 60.9281C83.2958 54.7945 86.6217 46.5612 86.5851 38C86.5851 20.1131 72.4161 5.56105 55.0001 5.56105V5.07146e-05C59.9546 -0.00827402 64.8573 1.00836 69.4001 2.98605C73.8155 4.90556 77.8116 7.67245 81.1621 11.1301C84.5543 14.611 87.2461 18.7114 89.0911 23.2081C92.9679 32.688 92.9679 43.3111 89.0911 52.791C87.2462 57.2881 84.5544 61.3888 81.1621 64.8701C77.8113 68.3274 73.8153 71.0942 69.4001 73.0141C64.8572 74.9914 59.9546 76.008 55.0001 76.0001Z" fill="#FF6000"/>
</svg>
