<svg width="20" height="20" viewBox="0 0 20 20" fill="none" xmlns="http://www.w3.org/2000/svg">
<path fill-rule="evenodd" clip-rule="evenodd" d="M10.0001 9.29008L13.8341 5.45508C13.8809 5.40833 13.9364 5.37124 13.9974 5.34594C14.0585 5.32064 14.124 5.30762 14.1901 5.30762C14.2562 5.30762 14.3217 5.32064 14.3828 5.34594C14.4438 5.37124 14.4993 5.40833 14.5461 5.45508C14.5929 5.50183 14.6299 5.55733 14.6552 5.61841C14.6805 5.67949 14.6936 5.74496 14.6936 5.81108C14.6936 5.87719 14.6805 5.94266 14.6552 6.00374C14.6299 6.06483 14.5929 6.12033 14.5461 6.16708L10.7071 10.0011L14.5411 13.8351C14.5879 13.8818 14.6249 13.9372 14.6503 13.9982C14.6756 14.0592 14.6887 14.1247 14.6887 14.1907C14.6888 14.2568 14.6758 14.3222 14.6505 14.3833C14.6253 14.4443 14.5883 14.4998 14.5416 14.5466C14.4949 14.5933 14.4395 14.6304 14.3785 14.6558C14.3174 14.6811 14.252 14.6941 14.186 14.6942C14.1199 14.6942 14.0545 14.6813 13.9934 14.656C13.9323 14.6308 13.8769 14.5938 13.8301 14.5471L10.0001 10.7171L6.1661 14.5471C6.07168 14.6414 5.94368 14.6943 5.81025 14.6942C5.67682 14.6941 5.54889 14.641 5.4546 14.5466C5.36032 14.4522 5.3074 14.3242 5.30749 14.1907C5.30759 14.0573 5.36068 13.9294 5.4551 13.8351L9.2891 10.0011L5.4541 6.16708C5.35968 6.07266 5.30664 5.9446 5.30664 5.81108C5.30664 5.67755 5.35968 5.54949 5.4541 5.45508C5.54852 5.36066 5.67657 5.30762 5.8101 5.30762C5.94363 5.30762 6.07168 5.36066 6.1661 5.45508L10.0001 9.29008Z" fill="white"/>
<path d="M10 19.5C15.2467 19.5 19.5 15.2467 19.5 10C19.5 4.75329 15.2467 0.5 10 0.5C4.75329 0.5 0.5 4.75329 0.5 10C0.5 15.2467 4.75329 19.5 10 19.5Z" stroke="white"/>
</svg>
